<svg width="16" height="16" viewBox="0 0 16 16" fill="none" xmlns="http://www.w3.org/2000/svg">
<path d="M7.53713 9.5C7.68557 9.5 7.83068 9.45601 7.9541 9.3736C8.07752 9.29119 8.17372 9.17406 8.23052 9.03701C8.28733 8.89997 8.30219 8.74917 8.27323 8.60368C8.24427 8.4582 8.17279 8.32456 8.06783 8.21967C7.96287 8.11478 7.82914 8.04335 7.68355 8.01441C7.53796 7.98547 7.38706 8.00032 7.24992 8.05709C7.11278 8.11386 6.99556 8.20999 6.91309 8.33332C6.83063 8.45666 6.78661 8.60166 6.78661 8.75C6.78661 8.94891 6.86568 9.13968 7.00643 9.28033C7.14718 9.42098 7.33808 9.5 7.53713 9.5ZM11.2897 9.5C11.4382 9.5 11.5833 9.45601 11.7067 9.3736C11.8301 9.29119 11.9263 9.17406 11.9831 9.03701C12.0399 8.89997 12.0548 8.74917 12.0258 8.60368C11.9969 8.4582 11.9254 8.32456 11.8204 8.21967C11.7155 8.11478 11.5817 8.04335 11.4362 8.01441C11.2906 7.98547 11.1397 8.00032 11.0025 8.05709C10.8654 8.11386 10.7482 8.20999 10.6657 8.33332C10.5832 8.45666 10.5392 8.60166 10.5392 8.75C10.5392 8.94891 10.6183 9.13968 10.759 9.28033C10.8998 9.42098 11.0907 9.5 11.2897 9.5ZM7.53713 12.5C7.68557 12.5 7.83068 12.456 7.9541 12.3736C8.07752 12.2912 8.17372 12.1741 8.23052 12.037C8.28733 11.9 8.30219 11.7492 8.27323 11.6037C8.24427 11.4582 8.17279 11.3246 8.06783 11.2197C7.96287 11.1148 7.82914 11.0434 7.68355 11.0144C7.53796 10.9855 7.38706 11.0003 7.24992 11.0571C7.11278 11.1139 6.99556 11.21 6.91309 11.3333C6.83063 11.4567 6.78661 11.6017 6.78661 11.75C6.78661 11.9489 6.86568 12.1397 7.00643 12.2803C7.14718 12.421 7.33808 12.5 7.53713 12.5ZM11.2897 12.5C11.4382 12.5 11.5833 12.456 11.7067 12.3736C11.8301 12.2912 11.9263 12.1741 11.9831 12.037C12.0399 11.9 12.0548 11.7492 12.0258 11.6037C11.9969 11.4582 11.9254 11.3246 11.8204 11.2197C11.7155 11.1148 11.5817 11.0434 11.4362 11.0144C11.2906 10.9855 11.1397 11.0003 11.0025 11.0571C10.8654 11.1139 10.7482 11.21 10.6657 11.3333C10.5832 11.4567 10.5392 11.6017 10.5392 11.75C10.5392 11.9489 10.6183 12.1397 10.759 12.2803C10.8998 12.421 11.0907 12.5 11.2897 12.5ZM3.78453 9.5C3.93296 9.5 4.07807 9.45601 4.20149 9.3736C4.32492 9.29119 4.42111 9.17406 4.47792 9.03701C4.53472 8.89997 4.54958 8.74917 4.52063 8.60368C4.49167 8.4582 4.42019 8.32456 4.31522 8.21967C4.21026 8.11478 4.07653 8.04335 3.93095 8.01441C3.78536 7.98547 3.63445 8.00032 3.49731 8.05709C3.36017 8.11386 3.24296 8.20999 3.16049 8.33332C3.07802 8.45666 3.034 8.60166 3.034 8.75C3.034 8.94891 3.11308 9.13968 3.25383 9.28033C3.39458 9.42098 3.58548 9.5 3.78453 9.5ZM12.7908 2H12.0403V1.25C12.0403 1.05109 11.9612 0.860322 11.8204 0.71967C11.6797 0.579018 11.4888 0.5 11.2897 0.5C11.0907 0.5 10.8998 0.579018 10.759 0.71967C10.6183 0.860322 10.5392 1.05109 10.5392 1.25V2H4.53505V1.25C4.53505 1.05109 4.45597 0.860322 4.31522 0.71967C4.17447 0.579018 3.98358 0.5 3.78453 0.5C3.58548 0.5 3.39458 0.579018 3.25383 0.71967C3.11308 0.860322 3.034 1.05109 3.034 1.25V2H2.28348C1.68633 2 1.11364 2.23705 0.691389 2.65901C0.269139 3.08097 0.0319214 3.65326 0.0319214 4.25V13.25C0.0319214 13.8467 0.269139 14.419 0.691389 14.841C1.11364 15.2629 1.68633 15.5 2.28348 15.5H12.7908C13.3879 15.5 13.9606 15.2629 14.3829 14.841C14.8051 14.419 15.0423 13.8467 15.0423 13.25V4.25C15.0423 3.65326 14.8051 3.08097 14.3829 2.65901C13.9606 2.23705 13.3879 2 12.7908 2ZM13.5413 13.25C13.5413 13.4489 13.4622 13.6397 13.3215 13.7803C13.1807 13.921 12.9898 14 12.7908 14H2.28348C2.08443 14 1.89354 13.921 1.75279 13.7803C1.61204 13.6397 1.53296 13.4489 1.53296 13.25V6.5H13.5413V13.25ZM13.5413 5H1.53296V4.25C1.53296 4.05109 1.61204 3.86032 1.75279 3.71967C1.89354 3.57902 2.08443 3.5 2.28348 3.5H12.7908C12.9898 3.5 13.1807 3.57902 13.3215 3.71967C13.4622 3.86032 13.5413 4.05109 13.5413 4.25V5ZM3.78453 12.5C3.93296 12.5 4.07807 12.456 4.20149 12.3736C4.32492 12.2912 4.42111 12.1741 4.47792 12.037C4.53472 11.9 4.54958 11.7492 4.52063 11.6037C4.49167 11.4582 4.42019 11.3246 4.31522 11.2197C4.21026 11.1148 4.07653 11.0434 3.93095 11.0144C3.78536 10.9855 3.63445 11.0003 3.49731 11.0571C3.36017 11.1139 3.24296 11.21 3.16049 11.3333C3.07802 11.4567 3.034 11.6017 3.034 11.75C3.034 11.9489 3.11308 12.1397 3.25383 12.2803C3.39458 12.421 3.58548 12.5 3.78453 12.5Z" fill="#C0BEFF"/>
</svg>
