<svg width="17" height="21" viewBox="0 0 17 21" fill="none" xmlns="http://www.w3.org/2000/svg">
<path d="M13.5719 0.916672C13.9182 0.916672 14.2612 0.984839 14.5811 1.11728C14.9011 1.24972 15.1918 1.44385 15.4367 1.68857C15.6816 1.93329 15.8759 2.22381 16.0084 2.54356C16.1409 2.8633 16.2092 3.206 16.2092 3.55209V17.4479C16.2092 17.794 16.1409 18.1367 16.0084 18.4565C15.8759 18.7762 15.6816 19.0667 15.4367 19.3114C15.1918 19.5562 14.9011 19.7503 14.5811 19.8827C14.2612 20.0152 13.9182 20.0833 13.5719 20.0833H3.50242C3.15601 20.0833 2.813 20.0151 2.49297 19.8826C2.17294 19.7501 1.88217 19.5559 1.63727 19.3111C1.39236 19.0663 1.19812 18.7756 1.06565 18.4558C0.933169 18.1359 0.865048 17.7931 0.865174 17.447V3.55209C0.865174 2.34459 1.67649 1.32876 2.78317 1.01538V2.59376C2.49164 2.81226 2.30367 3.15917 2.30367 3.55209V17.446C2.30367 18.1073 2.84071 18.6439 3.50242 18.6439H13.5719C14.2336 18.6439 14.7707 18.1073 14.7707 17.446V3.55209C14.7707 2.89084 14.2336 2.35417 13.5719 2.35417H11.4142V0.916672H13.5719ZM10.4552 0.916672V8.71655C10.4552 9.43242 9.68796 9.70076 9.21805 9.44871L9.13941 9.39888L7.10058 8.16742L5.10778 9.3663C4.62828 9.7113 3.83232 9.50046 3.74888 8.83155L3.74217 8.71751V0.916672H10.4552ZM9.01666 2.35417H5.18067V7.64705L6.68917 6.73759C6.80936 6.67374 6.94266 6.63845 7.07871 6.63446C7.21477 6.63047 7.34991 6.65789 7.47363 6.71459L9.01762 7.64801V2.35417H9.01666Z" fill="#C0BEFF"/>
</svg>
