<svg width="83" height="24" viewBox="0 0 83 24" fill="none" xmlns="http://www.w3.org/2000/svg">
<path d="M9.68 23.36C7.98 23.36 6.47 23.01 5.15 22.31C3.85 21.61 2.82 20.62 2.06 19.34C1.32 18.04 0.95 16.5 0.95 14.72V2H5.24V14.99C5.24 15.83 5.42 16.6 5.78 17.3C6.14 17.98 6.65 18.53 7.31 18.95C7.99 19.37 8.78 19.58 9.68 19.58C10.6 19.58 11.39 19.37 12.05 18.95C12.71 18.53 13.22 17.98 13.58 17.3C13.94 16.6 14.12 15.83 14.12 14.99V2H18.41V14.72C18.41 16.5 18.03 18.04 17.27 19.34C16.53 20.62 15.5 21.61 14.18 22.31C12.88 23.01 11.38 23.36 9.68 23.36ZM22.9074 23V14.21C22.9074 12.95 23.1974 11.8 23.7774 10.76C24.3774 9.72 25.2374 8.89 26.3574 8.27C27.4774 7.65 28.8174 7.34 30.3774 7.34C31.9574 7.34 33.2974 7.65 34.3974 8.27C35.5174 8.89 36.3674 9.72 36.9474 10.76C37.5474 11.8 37.8474 12.95 37.8474 14.21V23H33.7374V14.21C33.7374 13.27 33.4074 12.48 32.7474 11.84C32.1074 11.18 31.3174 10.85 30.3774 10.85C29.4574 10.85 28.6674 11.18 28.0074 11.84C27.3474 12.48 27.0174 13.27 27.0174 14.21V23H22.9074ZM42.3453 23V7.7H46.4853V23H42.3453ZM44.4153 5.87C43.7153 5.87 43.1053 5.62 42.5853 5.12C42.0853 4.6 41.8353 3.99 41.8353 3.29C41.8353 2.59 42.0853 1.99 42.5853 1.49C43.1053 0.969999 43.7153 0.709999 44.4153 0.709999C45.1153 0.709999 45.7153 0.969999 46.2153 1.49C46.7353 1.99 46.9953 2.59 46.9953 3.29C46.9953 3.99 46.7353 4.6 46.2153 5.12C45.7153 5.62 45.1153 5.87 44.4153 5.87ZM57.6334 23.36C56.7334 23.36 55.9134 23.12 55.1734 22.64C54.4534 22.16 53.9534 21.53 53.6734 20.75L49.2934 7.7H53.7634L57.3034 19.07C57.3634 19.23 57.4834 19.31 57.6634 19.31C57.8434 19.31 57.9634 19.23 58.0234 19.07L61.5934 7.7H65.9734L61.5934 20.72C61.3134 21.5 60.8034 22.14 60.0634 22.64C59.3434 23.12 58.5334 23.36 57.6334 23.36ZM75.9526 23C74.2126 23 72.6926 22.67 71.3926 22.01C70.1126 21.33 69.1126 20.41 68.3926 19.25C67.6926 18.09 67.3426 16.79 67.3426 15.35C67.3426 13.73 67.6726 12.32 68.3326 11.12C68.9926 9.92 69.8926 8.99 71.0326 8.33C72.1726 7.67 73.4626 7.34 74.9026 7.34C76.6226 7.34 78.0126 7.7 79.0726 8.42C80.1526 9.14 80.9426 10.11 81.4426 11.33C81.9426 12.53 82.1926 13.87 82.1926 15.35C82.1926 15.55 82.1826 15.79 82.1626 16.07C82.1426 16.33 82.1126 16.53 82.0726 16.67H71.7226C71.9426 17.59 72.4326 18.29 73.1926 18.77C73.9726 19.25 74.9126 19.49 76.0126 19.49H80.2726V23H75.9526ZM71.6926 13.91H78.0826C78.0026 12.93 77.6926 12.16 77.1526 11.6C76.6326 11.02 75.8926 10.73 74.9326 10.73C73.9126 10.73 73.1426 11.06 72.6226 11.72C72.1026 12.36 71.7926 13.09 71.6926 13.91ZM73.1926 5.69L75.7126 2H79.5826L77.0626 5.69H73.1926Z" fill="url(#paint0_linear)"/>
<defs>
<linearGradient id="paint0_linear" x1="5.5" y1="-12" x2="81" y2="36" gradientUnits="userSpaceOnUse">
<stop stop-color="white" stop-opacity="0.69"/>
<stop offset="1" stop-color="#DEDDFF" stop-opacity="0.7"/>
</linearGradient>
</defs>
</svg>
