<svg width="28" height="37" viewBox="0 0 28 37" fill="none" xmlns="http://www.w3.org/2000/svg">
<path d="M23.1443 7.24539C22.0653 7.24662 21.0308 7.6755 20.2681 8.43795C19.5052 9.2004 19.076 10.2341 19.075 11.3123V21.4422C19.0864 22.1672 18.9535 22.887 18.6838 23.56C18.4141 24.233 18.0133 24.8456 17.5044 25.3623C16.9954 25.879 16.3887 26.2893 15.7196 26.5693C15.0505 26.8494 14.3323 26.9936 13.6068 26.9936C12.8814 26.9936 12.1632 26.8494 11.4941 26.5693C10.825 26.2893 10.2183 25.879 9.70938 25.3623C9.20048 24.8456 8.79953 24.233 8.52987 23.56C8.26021 22.887 8.12724 22.1672 8.13869 21.4422V11.3123C8.13869 10.2338 7.70995 9.19949 6.9468 8.43687C6.18365 7.67425 5.1486 7.24582 4.06934 7.24582C2.99009 7.24582 1.95503 7.67425 1.19188 8.43687C0.42873 9.19949 0 10.2338 0 11.3123V22.5148C-5.3253e-08 24.3004 0.35195 26.0686 1.03576 27.7184C1.71957 29.3681 2.72185 30.867 3.98535 32.1297C5.24886 33.3923 6.74887 34.3939 8.39973 35.0773C10.0506 35.7605 11.82 36.1122 13.6068 36.1122C15.3937 36.1122 17.1631 35.7605 18.814 35.0773C20.4649 34.3939 21.9648 33.3923 23.2283 32.1297C24.4919 30.867 25.4942 29.3681 26.1778 27.7184C26.8617 26.0686 27.2137 24.3004 27.2137 22.5148V11.3123C27.2125 10.2341 26.7835 9.20038 26.0206 8.43795C25.2577 7.6755 24.2232 7.24662 23.1443 7.24539ZM25.4333 22.514C25.4333 25.6485 24.1873 28.6544 21.9694 30.8707C19.7515 33.087 16.7434 34.3323 13.6068 34.3323C10.4703 34.3323 7.46215 33.087 5.24426 30.8707C3.02636 28.6544 1.78035 25.6485 1.78035 22.514V11.3123C1.78557 10.7091 2.02901 10.1323 2.45772 9.70761C2.88642 9.28288 3.46566 9.04458 4.06934 9.04458C4.67303 9.04458 5.25227 9.28288 5.68096 9.70761C6.10966 10.1323 6.35312 10.7091 6.35833 11.3123V21.4422C6.35833 23.3634 7.12201 25.2058 8.48137 26.5642C9.84072 27.9227 11.6844 28.6857 13.6068 28.6857C15.5293 28.6857 17.373 27.9227 18.7324 26.5642C20.0916 25.2058 20.8554 23.3634 20.8554 21.4422V11.3123C20.8554 10.7057 21.0964 10.1239 21.5258 9.69491C21.9551 9.26593 22.5372 9.02494 23.1443 9.02494C23.7515 9.02494 24.3336 9.26593 24.7629 9.69491C25.1921 10.1239 25.4333 10.7057 25.4333 11.3123V22.514Z" fill="url(#paint0_linear)"/>
<path d="M12.7167 9.3187V21.0462C12.7167 21.2822 12.8105 21.5085 12.9774 21.6753C13.1444 21.8422 13.3708 21.9358 13.6069 21.9358C13.843 21.9358 14.0694 21.8422 14.2363 21.6753C14.4033 21.5085 14.4971 21.2822 14.4971 21.0462V9.3187C15.6464 9.09741 16.6719 8.45598 17.3734 7.51967C18.0748 6.58334 18.4019 5.41937 18.2907 4.25501C18.1794 3.09065 17.638 2.00954 16.7719 1.22275C15.9058 0.435959 14.7773 0 13.6069 0C12.4364 0 11.308 0.435959 10.4419 1.22275C9.57583 2.00954 9.03432 3.09065 8.9231 4.25501C8.81187 5.41937 9.13892 6.58334 9.8404 7.51967C10.5419 8.45598 11.5674 9.09741 12.7167 9.3187ZM13.6069 1.78103C14.1854 1.78103 14.7509 1.95246 15.2319 2.27363C15.7129 2.59481 16.0878 3.0513 16.3091 3.5854C16.5305 4.11949 16.5884 4.70719 16.4756 5.27418C16.3627 5.84117 16.0841 6.36196 15.675 6.77073C15.2659 7.17949 14.7448 7.45785 14.1774 7.57061C13.61 7.68338 13.0219 7.62546 12.4875 7.40422C11.953 7.18296 11.4962 6.80831 11.1748 6.32762C10.8535 5.84694 10.682 5.28182 10.682 4.70372C10.6829 3.92883 10.9913 3.18592 11.5397 2.638C12.088 2.09009 12.8314 1.78188 13.6069 1.78103Z" fill="url(#paint1_linear)"/>
<defs>
<linearGradient id="paint0_linear" x1="0" y1="21.6789" x2="27.2137" y2="21.6789" gradientUnits="userSpaceOnUse">
<stop stop-color="#EC441E"/>
<stop offset="1" stop-color="#EE2A4A"/>
</linearGradient>
<linearGradient id="paint1_linear" x1="8.90179" y1="10.9679" x2="18.312" y2="10.9679" gradientUnits="userSpaceOnUse">
<stop stop-color="#EC441E"/>
<stop offset="1" stop-color="#EE2A4A"/>
</linearGradient>
</defs>
</svg>
