<svg width="16" height="16" viewBox="0 0 16 16" fill="none" xmlns="http://www.w3.org/2000/svg">
<path d="M12.8205 2.214C11.5899 0.975372 9.96576 0.204906 8.228 0.0354275C6.49024 -0.134051 4.74779 0.30808 3.30107 1.28559C1.85435 2.26311 0.79401 3.71475 0.302856 5.39025C-0.188298 7.06576 -0.0794856 8.86012 0.610533 10.464C0.682451 10.6131 0.706048 10.7809 0.678033 10.944L0.018033 14.1165C-0.00739489 14.2381 -0.00220248 14.3642 0.0331436 14.4833C0.0684897 14.6024 0.132882 14.7109 0.220533 14.799C0.292386 14.8703 0.377939 14.9264 0.472034 14.9638C0.566129 15.0011 0.666818 15.0191 0.768033 15.0165H0.918033L4.12803 14.3715C4.29118 14.3519 4.45662 14.3751 4.60803 14.439C6.21191 15.129 8.00627 15.2378 9.68178 14.7467C11.3573 14.2555 12.8089 13.1952 13.7864 11.7485C14.7639 10.3017 15.2061 8.55929 15.0366 6.82153C14.8671 5.08377 14.0967 3.45959 12.858 2.229L12.8205 2.214ZM4.51803 8.2665C4.3697 8.2665 4.22469 8.22251 4.10136 8.1401C3.97802 8.05769 3.88189 7.94055 3.82512 7.80351C3.76836 7.66646 3.7535 7.51566 3.78244 7.37018C3.81138 7.22469 3.88281 7.09106 3.9877 6.98617C4.09259 6.88128 4.22623 6.80985 4.37172 6.78091C4.5172 6.75197 4.668 6.76682 4.80505 6.82359C4.94209 6.88035 5.05922 6.97648 5.14163 7.09982C5.22405 7.22316 5.26803 7.36816 5.26803 7.5165C5.26803 7.71541 5.18902 7.90617 5.04836 8.04683C4.90771 8.18748 4.71695 8.2665 4.51803 8.2665ZM7.51803 8.2665C7.3697 8.2665 7.22469 8.22251 7.10136 8.1401C6.97802 8.05769 6.88189 7.94055 6.82512 7.80351C6.76836 7.66646 6.75351 7.51566 6.78244 7.37018C6.81138 7.22469 6.88281 7.09106 6.9877 6.98617C7.09259 6.88128 7.22623 6.80985 7.37172 6.78091C7.5172 6.75197 7.668 6.76682 7.80505 6.82359C7.94209 6.88035 8.05922 6.97648 8.14163 7.09982C8.22405 7.22316 8.26803 7.36816 8.26803 7.5165C8.26803 7.71541 8.18902 7.90617 8.04836 8.04683C7.90771 8.18748 7.71695 8.2665 7.51803 8.2665ZM10.518 8.2665C10.3697 8.2665 10.2247 8.22251 10.1014 8.1401C9.97802 8.05769 9.88189 7.94055 9.82512 7.80351C9.76836 7.66646 9.7535 7.51566 9.78244 7.37018C9.81138 7.22469 9.88281 7.09106 9.9877 6.98617C10.0926 6.88128 10.2262 6.80985 10.3717 6.78091C10.5172 6.75197 10.668 6.76682 10.805 6.82359C10.9421 6.88035 11.0592 6.97648 11.1416 7.09982C11.224 7.22316 11.268 7.36816 11.268 7.5165C11.268 7.71541 11.189 7.90617 11.0484 8.04683C10.9077 8.18748 10.7169 8.2665 10.518 8.2665Z" fill="white"/>
</svg>
