<svg width="22" height="22" viewBox="0 0 22 22" fill="none" xmlns="http://www.w3.org/2000/svg">
<path d="M16.766 6.48828C16.5737 6.19994 16.3031 5.97243 15.986 5.83247C15.669 5.6925 15.3185 5.64588 14.9759 5.69808C14.426 5.77642 13.8656 5.66944 13.3832 5.39401C12.9008 5.11859 12.5239 4.6904 12.3118 4.17699C12.0403 3.52 11.4323 3.06969 10.722 3.03402C10.4615 3.02092 10.2005 3.02092 9.93996 3.03402C9.22496 3.07183 8.61437 3.52773 8.34582 4.19117C8.13804 4.70515 7.76531 5.13549 7.28624 5.4145C6.80718 5.69351 6.24895 5.80536 5.69938 5.73246C4.98996 5.63836 4.29215 5.94429 3.90672 6.54887C3.75353 6.78854 3.6138 7.03657 3.4882 7.29179C3.18313 7.91312 3.30129 8.62812 3.72754 9.1734C4.06993 9.61062 4.25694 10.1494 4.25904 10.7047C4.26114 11.2601 4.07821 11.8003 3.73914 12.2401C3.31547 12.7905 3.20203 13.5072 3.51184 14.1307C3.58059 14.2682 3.65406 14.4044 3.73227 14.5393C3.79958 14.6539 3.86948 14.7665 3.94195 14.8771C4.1343 15.1654 4.40488 15.3928 4.72194 15.5328C5.039 15.6728 5.3894 15.7194 5.73203 15.6673C6.28197 15.5888 6.84239 15.6957 7.32481 15.9711C7.80723 16.2466 8.18416 16.6749 8.39609 17.1884C8.66766 17.8453 9.27609 18.2957 9.98594 18.3309C10.2464 18.3444 10.5075 18.3444 10.768 18.3309C11.483 18.2935 12.0936 17.8376 12.3621 17.1742C12.5697 16.6602 12.9424 16.2298 13.4214 15.9508C13.9004 15.6718 14.4586 15.5599 15.0081 15.6329C15.718 15.727 16.4158 15.4211 16.8012 14.8165C16.9543 14.5767 17.0938 14.3285 17.2193 14.0731C17.5248 13.4522 17.4066 12.7372 16.98 12.192C16.6377 11.7546 16.4509 11.2157 16.4489 10.6603C16.4468 10.1049 16.6298 9.56472 16.9688 9.12484C17.3925 8.57484 17.5059 7.85812 17.1957 7.23637C17.1275 7.09887 17.054 6.96265 16.9752 6.82773C16.9082 6.71229 16.8385 6.59914 16.766 6.48828Z" stroke="#C0BEFF" stroke-width="1.32624" stroke-linecap="round" stroke-linejoin="round"/>
<path d="M10.3546 12.7463C11.4942 12.7463 12.418 11.8225 12.418 10.6829C12.418 9.54333 11.4942 8.61954 10.3546 8.61954C9.21506 8.61954 8.29126 9.54333 8.29126 10.6829C8.29126 11.8225 9.21506 12.7463 10.3546 12.7463Z" stroke="#C0BEFF" stroke-width="1.32624" stroke-linecap="round" stroke-linejoin="round"/>
</svg>
