<svg width="32" height="31" viewBox="0 0 32 31" fill="none" xmlns="http://www.w3.org/2000/svg">
<path d="M15.5761 0C6.98752 0 0 6.92535 0 15.4375C0 23.9496 6.98752 30.875 15.5761 30.875C24.1646 30.875 31.1522 23.9496 31.1522 15.4375C31.1522 6.92535 24.1646 0 15.5761 0ZM15.5761 24.9375C14.011 24.9375 12.7664 24.2799 12.5994 22.8905C12.595 22.849 12.5994 22.807 12.6125 22.7673C12.6256 22.7276 12.6469 22.6911 12.6752 22.6602C12.7035 22.6292 12.738 22.6045 12.7766 22.5877C12.8151 22.5708 12.8568 22.5623 12.8989 22.5625H18.2495C18.292 22.5622 18.3342 22.5709 18.3731 22.588C18.412 22.6051 18.4467 22.6302 18.4751 22.6616C18.5034 22.6931 18.5247 22.7302 18.5374 22.7704C18.5502 22.8107 18.5541 22.8531 18.549 22.895C18.3581 24.2584 17.1247 24.9375 15.5761 24.9375ZM22.9148 21.375H8.23735C7.35071 21.375 6.88942 20.2617 7.39939 19.668C8.62226 18.2326 9.48643 17.6292 9.48643 13.6711C9.48643 10.044 11.414 8.75707 13.006 8.12918C13.1156 8.08393 13.2144 8.01643 13.296 7.93104C13.3777 7.84565 13.4403 7.74426 13.48 7.6334C13.7564 6.72422 14.5382 5.9375 15.5761 5.9375C16.614 5.9375 17.3943 6.72422 17.6729 7.63414C17.7128 7.74498 17.7757 7.84634 17.8574 7.93171C17.9392 8.01708 18.038 8.08459 18.1476 8.12992C19.7359 8.75633 21.6672 10.0455 21.6672 13.6718C21.6672 17.6299 22.5306 18.2333 23.7535 19.6687C24.2582 20.2617 23.7962 21.375 22.9148 21.375V21.375Z" fill="#5855D6"/>
</svg>
