<svg width="17" height="17" viewBox="0 0 17 17" fill="none" xmlns="http://www.w3.org/2000/svg">
<path d="M4.62867 9.8913C4.7852 10.0438 4.85075 10.2669 4.80155 10.4798L3.62115 15.5876L3.62045 15.5906C3.61282 15.6229 3.61511 15.6566 3.62701 15.6876C3.63891 15.7185 3.6599 15.7452 3.68731 15.7641C3.71473 15.7831 3.74727 15.7934 3.78068 15.7935C3.81409 15.7937 3.84675 15.7839 3.87439 15.7653L3.87697 15.7635L3.87697 15.7635L8.19059 12.8898C8.40045 12.75 8.67378 12.75 8.88364 12.8898L13.1963 15.7629C13.1964 15.7629 13.1965 15.763 13.1966 15.7631C13.2251 15.7819 13.2588 15.7916 13.2931 15.7909C13.3275 15.7901 13.3608 15.7789 13.3885 15.7587C13.4162 15.7385 13.437 15.7103 13.4482 15.6781C13.4593 15.646 13.4604 15.6113 13.4512 15.5786C13.4512 15.5784 13.4511 15.5783 13.4511 15.5781L12.0027 10.5133C11.937 10.2835 12.008 10.0365 12.1856 9.87669L15.779 6.64523L4.62867 9.8913ZM4.62867 9.8913L1.29028 6.63994M4.62867 9.8913L1.29028 6.63994M7.81541 1.04962L5.86101 5.37292L1.34458 5.73154C1.19284 5.74356 1.04777 5.799 0.926731 5.89125C0.805694 5.98349 0.713813 6.10863 0.662081 6.25169C0.61035 6.39475 0.600958 6.54968 0.635029 6.69793C0.6691 6.84619 0.745191 6.98149 0.854199 7.08767L7.81541 1.04962ZM7.81541 1.04962C7.87772 0.910414 7.97903 0.792203 8.10709 0.709256C8.23516 0.626308 8.3845 0.582171 8.53712 0.582171C8.68973 0.582171 8.83908 0.626308 8.96714 0.709256C9.0952 0.792203 9.19651 0.910414 9.25882 1.04962M7.81541 1.04962H9.25882M1.29028 6.63994C1.29027 6.63993 1.29027 6.63993 1.29027 6.63993C1.26729 6.61755 1.2513 6.58908 1.24415 6.55795C1.237 6.52682 1.23897 6.49428 1.24983 6.46423C1.26071 6.43416 1.28004 6.4078 1.30558 6.38834C1.33112 6.36887 1.36178 6.35714 1.39391 6.35459L1.39405 6.35458L5.91048 5.99596C6.13748 5.97793 6.33672 5.83787 6.43052 5.63037L8.38492 1.30708L8.38492 1.30708L8.38586 1.30499C8.39886 1.27595 8.42002 1.25122 8.44686 1.23383C8.4737 1.21645 8.50505 1.20717 8.53712 1.20717C8.56918 1.20717 8.60053 1.21645 8.62737 1.23383C8.65421 1.25122 8.67537 1.27595 8.68837 1.30499L8.68931 1.30708L10.6437 5.63037C10.7375 5.83783 10.9367 5.97789 11.1636 5.99595L15.6801 6.35536L15.6802 6.35538C15.7129 6.35797 15.7441 6.37007 15.7698 6.39014C15.7956 6.4102 15.8149 6.43733 15.8254 6.46812C15.8358 6.49892 15.837 6.53208 15.8288 6.56352C15.8206 6.59492 15.8033 6.62329 15.7791 6.64511L1.29028 6.63994ZM9.25882 1.04962L11.2132 5.37292L9.25882 1.04962Z" stroke="#C0BEFF" stroke-width="1.25" stroke-linejoin="round"/>
</svg>
