<svg width="177" height="190" viewBox="0 0 177 190" fill="none" xmlns="http://www.w3.org/2000/svg">
<rect width="176.122" height="190" rx="20" fill="#1D1C40"/>
<mask id="mask0" mask-type="alpha" maskUnits="userSpaceOnUse" x="0" y="0" width="177" height="190">
<rect width="176.122" height="190" rx="20" fill="#24243A"/>
</mask>
<g mask="url(#mask0)">
<g opacity="0.3">
<path d="M167.504 86.6103C162.866 86.6155 158.418 88.4594 155.139 91.7374C151.859 95.0154 150.014 99.4598 150.009 104.095V147.647C150.058 150.764 149.487 153.858 148.328 156.752C147.168 159.645 145.445 162.279 143.257 164.5C141.068 166.722 138.46 168.486 135.583 169.69C132.707 170.894 129.619 171.514 126.5 171.514C123.381 171.514 120.293 170.894 117.417 169.69C114.54 168.486 111.932 166.722 109.744 164.5C107.556 162.279 105.832 159.645 104.673 156.752C103.513 153.858 102.941 150.764 102.991 147.647V104.095C102.991 99.4585 101.147 95.0115 97.8664 91.7328C94.5854 88.4541 90.1354 86.6121 85.4954 86.6121C80.8553 86.6121 76.4053 88.4541 73.1243 91.7328C69.8432 95.0115 68 99.4585 68 104.095V152.258C68 159.935 69.5131 167.537 72.453 174.63C75.3929 181.723 79.7021 188.167 85.1343 193.596C90.5665 199.024 97.0155 203.33 104.113 206.268C111.211 209.205 118.818 210.718 126.5 210.718C134.182 210.718 141.79 209.205 148.887 206.268C155.985 203.33 162.433 199.024 167.865 193.596C173.298 188.167 177.607 181.723 180.547 174.63C183.487 167.537 185 159.935 185 152.258V104.095C184.995 99.4597 183.151 95.0154 179.871 91.7374C176.591 88.4594 172.143 86.6155 167.504 86.6103ZM177.346 152.255C177.346 165.731 171.988 178.654 162.453 188.183C152.918 197.711 139.985 203.065 126.5 203.065C113.015 203.065 100.082 197.711 90.5467 188.183C81.0113 178.654 75.6543 165.731 75.6543 152.255V104.095C75.6767 101.502 76.7233 99.0222 78.5665 97.1961C80.4096 95.3701 82.8999 94.3455 85.4954 94.3455C88.0908 94.3455 90.5811 95.3701 92.4242 97.1961C94.2673 99.0222 95.314 101.502 95.3364 104.095V147.647C95.3364 155.906 98.6197 163.828 104.464 169.668C110.308 175.508 118.235 178.789 126.5 178.789C134.765 178.789 142.692 175.508 148.536 169.668C154.38 163.828 157.664 155.906 157.664 147.647V104.095C157.664 101.487 158.7 98.9857 160.546 97.1415C162.392 95.2972 164.895 94.2611 167.504 94.2611C170.115 94.2611 172.618 95.2972 174.463 97.1415C176.309 98.9857 177.346 101.487 177.346 104.095V152.255Z" fill="url(#paint0_linear)"/>
<path d="M122.673 95.5242V145.944C122.673 146.959 123.076 147.932 123.794 148.649C124.511 149.366 125.485 149.769 126.5 149.769C127.515 149.769 128.488 149.366 129.206 148.649C129.924 147.932 130.327 146.959 130.327 145.944V95.5242C135.268 94.5728 139.677 91.815 142.693 87.7896C145.709 83.764 147.115 78.7597 146.637 73.7538C146.159 68.7479 143.831 64.0998 140.107 60.7172C136.383 57.3345 131.532 55.4602 126.5 55.4602C121.468 55.4602 116.616 57.3345 112.893 60.7172C109.169 64.0998 106.841 68.7479 106.363 73.7538C105.885 78.7597 107.291 83.764 110.307 87.7896C113.322 91.815 117.731 94.5728 122.673 95.5242ZM126.5 63.1174C128.987 63.1174 131.418 63.8544 133.486 65.2353C135.554 66.6161 137.166 68.5787 138.118 70.8749C139.069 73.1712 139.318 75.6979 138.833 78.1355C138.348 80.5732 137.15 82.8122 135.391 84.5697C133.633 86.327 131.392 87.5238 128.953 88.0086C126.513 88.4934 123.985 88.2444 121.687 87.2932C119.389 86.342 117.425 84.7312 116.044 82.6646C114.662 80.598 113.925 78.1684 113.925 75.683C113.929 72.3514 115.255 69.1575 117.612 66.8018C119.97 64.4461 123.166 63.1211 126.5 63.1174Z" fill="url(#paint1_linear)"/>
</g>
</g>
<path d="M21.957 75H27.9453V73.8926H23.1874V65.1357H21.957V75ZM32.1149 75.1367C33.6667 75.1367 34.8288 74.207 35.0612 73.0312L35.0749 72.9629H33.9059L33.8854 73.0244C33.6803 73.6328 33.0446 74.084 32.1422 74.084C30.8776 74.084 30.071 73.2295 30.0436 71.7666H35.1637V71.3291C35.1637 69.1963 33.9811 67.7539 32.0397 67.7539C30.0983 67.7539 28.8405 69.2646 28.8405 71.4658V71.4727C28.8405 73.708 30.071 75.1367 32.1149 75.1367ZM32.0329 68.8066C33.0719 68.8066 33.8376 69.4561 33.9538 70.8369H30.0641C30.194 69.5107 31.0006 68.8066 32.0329 68.8066ZM38.3763 75H39.5931L42.2045 67.8906H40.9672L38.9984 73.7354H38.9711L37.0092 67.8906H35.7582L38.3763 75ZM46.0733 75.1367C47.6251 75.1367 48.7872 74.207 49.0196 73.0312L49.0333 72.9629H47.8644L47.8438 73.0244C47.6388 73.6328 47.003 74.084 46.1007 74.084C44.836 74.084 44.0294 73.2295 44.002 71.7666H49.1222V71.3291C49.1222 69.1963 47.9395 67.7539 45.9981 67.7539C44.0567 67.7539 42.7989 69.2646 42.7989 71.4658V71.4727C42.7989 73.708 44.0294 75.1367 46.0733 75.1367ZM45.9913 68.8066C47.0304 68.8066 47.796 69.4561 47.9122 70.8369H44.0226C44.1524 69.5107 44.9591 68.8066 45.9913 68.8066ZM50.6668 75H51.8563V65.1357H50.6668V75ZM59.3206 75.1367C60.4006 75.1367 61.1253 74.6514 61.5081 73.9883H61.5354V75H62.7249V67.8906H61.5354V72.0742C61.5354 73.2842 60.804 74.084 59.6829 74.084C58.5891 74.084 58.0491 73.4482 58.0491 72.293V67.8906H56.8596V72.5049C56.8596 74.125 57.762 75.1367 59.3206 75.1367ZM64.5566 77.3926H65.7461V73.8105H65.7734C66.2178 74.6309 67.0449 75.1367 68.0498 75.1367C69.834 75.1367 71.0508 73.6943 71.0508 71.4521V71.4453C71.0508 69.2031 69.8476 67.7539 68.0293 67.7539C67.0107 67.7539 66.2178 68.2666 65.7734 69.0938H65.7461V67.8906H64.5566V77.3926ZM67.7969 74.084C66.6006 74.084 65.7392 73.0381 65.7392 71.4521V71.4453C65.7392 69.8525 66.5937 68.8066 67.7969 68.8066C69.0547 68.8066 69.834 69.8115 69.834 71.4453V71.4521C69.834 73.0723 69.0547 74.084 67.7969 74.084ZM76.3686 77.3926C77.6537 77.3926 78.2758 76.8047 78.7817 75.4443L81.557 67.8906H80.3061L78.3373 73.8105H78.31L76.3481 67.8906H75.0766L77.7153 75.0068L77.5717 75.4102C77.2846 76.2168 76.8676 76.4082 76.1156 76.4082C75.9721 76.4082 75.8354 76.3877 75.7328 76.3672V77.3379C75.8832 77.3652 76.1362 77.3926 76.3686 77.3926ZM85.4464 75.1367C87.4083 75.1367 88.7345 73.7148 88.7345 71.4453V71.4316C88.7345 69.1621 87.4015 67.7539 85.4396 67.7539C83.4777 67.7539 82.1515 69.1689 82.1515 71.4316V71.4453C82.1515 73.708 83.4708 75.1367 85.4464 75.1367ZM85.4533 74.084C84.1954 74.084 83.3683 73.1201 83.3683 71.4453V71.4316C83.3683 69.7705 84.2023 68.8066 85.4396 68.8066C86.6974 68.8066 87.5177 69.7637 87.5177 71.4316V71.4453C87.5177 73.1133 86.7042 74.084 85.4533 74.084ZM92.6444 75.1367C93.7245 75.1367 94.4491 74.6514 94.8319 73.9883H94.8592V75H96.0487V67.8906H94.8592V72.0742C94.8592 73.2842 94.1278 74.084 93.0067 74.084C91.9129 74.084 91.3729 73.4482 91.3729 72.293V67.8906H90.1835V72.5049C90.1835 74.125 91.0858 75.1367 92.6444 75.1367ZM97.8804 75H99.0699V70.6113C99.0699 69.5312 99.6715 68.8887 100.594 68.8887C100.881 68.8887 101.134 68.9229 101.23 68.957V67.8018C101.134 67.7881 100.957 67.7539 100.752 67.7539C99.9517 67.7539 99.3365 68.2734 99.0972 69.0938H99.0699V67.8906H97.8804V75ZM108.154 75.1367C109.74 75.1367 110.916 74.2617 110.916 73.0176V73.0107C110.916 71.999 110.396 71.4316 108.961 71.083L107.833 70.8096C107.047 70.6182 106.726 70.2832 106.726 69.7979V69.791C106.726 69.1621 107.259 68.7451 108.12 68.7451C109.002 68.7451 109.528 69.2031 109.624 69.8936L109.631 69.9414H110.766L110.759 69.8525C110.67 68.6631 109.679 67.7539 108.12 67.7539C106.582 67.7539 105.509 68.6221 105.509 69.8457V69.8525C105.509 70.8779 106.158 71.5 107.498 71.8213L108.626 72.0947C109.433 72.293 109.699 72.5801 109.699 73.0928V73.0996C109.699 73.7422 109.125 74.1455 108.161 74.1455C107.19 74.1455 106.664 73.7285 106.521 73.0176L106.507 72.9492H105.317L105.324 73.0107C105.468 74.2822 106.48 75.1367 108.154 75.1367ZM112.529 75H113.718V72.3203L114.382 71.6846L117.02 75H118.401L115.222 70.96L118.305 67.8906H116.863L113.746 71.0283H113.718V65.1357H112.529V75ZM120.178 66.6875C120.595 66.6875 120.923 66.3525 120.923 65.9424C120.923 65.5254 120.595 65.1973 120.178 65.1973C119.768 65.1973 119.433 65.5254 119.433 65.9424C119.433 66.3525 119.768 66.6875 120.178 66.6875ZM119.583 75H120.773V67.8906H119.583V75ZM122.735 75H123.924V65.1357H122.735V75ZM125.872 75H127.061V65.1357H125.872V75ZM131.47 75.1367C133.056 75.1367 134.232 74.2617 134.232 73.0176V73.0107C134.232 71.999 133.713 71.4316 132.277 71.083L131.149 70.8096C130.363 70.6182 130.042 70.2832 130.042 69.7979V69.791C130.042 69.1621 130.575 68.7451 131.436 68.7451C132.318 68.7451 132.844 69.2031 132.94 69.8936L132.947 69.9414H134.082L134.075 69.8525C133.986 68.6631 132.995 67.7539 131.436 67.7539C129.898 67.7539 128.825 68.6221 128.825 69.8457V69.8525C128.825 70.8779 129.474 71.5 130.814 71.8213L131.942 72.0947C132.749 72.293 133.015 72.5801 133.015 73.0928V73.0996C133.015 73.7422 132.441 74.1455 131.477 74.1455C130.506 74.1455 129.98 73.7285 129.837 73.0176L129.823 72.9492H128.633L128.64 73.0107C128.784 74.2822 129.796 75.1367 131.47 75.1367ZM135.271 76.9346H136.118L137.117 73.5918H135.872L135.271 76.9346ZM25.4228 95.1709C27.9111 95.1709 29.4013 93.9678 29.4013 92.0742V92.0674C29.4013 90.5156 28.4716 89.6748 26.4072 89.2646L25.3613 89.0527C24.2265 88.8271 23.7206 88.4648 23.7206 87.8428V87.8359C23.7206 87.1318 24.3564 86.6465 25.416 86.6396C26.4345 86.6396 27.1454 87.1113 27.248 87.8838L27.2548 87.9658H29.2031L29.1962 87.8359C29.1005 86.1064 27.6992 84.9648 25.416 84.9648C23.2285 84.9648 21.6562 86.1543 21.6562 87.959V87.9658C21.6562 89.4492 22.6406 90.3789 24.5888 90.7686L25.6279 90.9736C26.8515 91.2266 27.3369 91.5615 27.3369 92.2314V92.2383C27.3369 92.9902 26.6191 93.4893 25.4775 93.4893C24.3495 93.4893 23.5361 93.0107 23.4062 92.2451L23.3925 92.1699H21.4443L21.4511 92.2793C21.5673 94.0977 23.0781 95.1709 25.4228 95.1709ZM34.1383 95.1504C36.3532 95.1504 37.7682 93.7285 37.7682 91.3359V91.3223C37.7682 88.9502 36.3258 87.5215 34.1315 87.5215C31.944 87.5215 30.5085 88.9639 30.5085 91.3223V91.3359C30.5085 93.7217 31.9098 95.1504 34.1383 95.1504ZM34.1452 93.585C33.1608 93.585 32.5387 92.7715 32.5387 91.3359V91.3223C32.5387 89.9072 33.1676 89.0869 34.1315 89.0869C35.1022 89.0869 35.7379 89.9072 35.7379 91.3223V91.3359C35.7379 92.7646 35.1159 93.585 34.1452 93.585ZM39.6136 95H41.6097V89.1758H43.0179V87.6719H41.5619V87.1592C41.5619 86.6328 41.8558 86.3525 42.5189 86.3525C42.7035 86.3525 42.8949 86.3594 43.0316 86.3867V85.0674C42.7992 85.0195 42.3959 84.9854 42.0267 84.9854C40.2972 84.9854 39.6136 85.6484 39.6136 87.084V87.6719H38.6156V89.1758H39.6136V95ZM47.2628 95.1504C47.6798 95.1504 48.0011 95.1094 48.2267 95.0752V93.6123C48.1036 93.626 47.9737 93.6465 47.796 93.6465C47.1944 93.6465 46.8868 93.4141 46.8868 92.7305V89.1758H48.2267V87.6719H46.8868V85.8809H44.8702V87.6719H43.8517V89.1758H44.8702V92.9492C44.8702 94.5215 45.6358 95.1504 47.2628 95.1504ZM51.036 95H53.1346L54.4539 89.8184H54.4949L55.8211 95H57.9471L59.8885 87.6719H57.9197L56.8055 93.1064H56.7645L55.4588 87.6719H53.5447L52.2459 93.1064H52.2049L51.0975 87.6719H49.0877L51.036 95ZM62.8824 95.1162C63.8462 95.1162 64.6255 94.6582 65.0425 93.9062H65.0835V95H67.0796V89.9756C67.0796 88.499 65.856 87.5215 63.9624 87.5215C62.0279 87.5215 60.8658 88.4922 60.7564 89.8457L60.7495 89.9277H62.5747L62.5884 89.8662C62.6841 89.3945 63.1353 89.0459 63.8804 89.0459C64.6597 89.0459 65.0835 89.4492 65.0835 90.0986V90.5498L63.272 90.6592C61.4537 90.7754 60.4214 91.5547 60.4214 92.8877V92.9014C60.4214 94.1934 61.4126 95.1162 62.8824 95.1162ZM62.397 92.7988V92.7852C62.397 92.2656 62.8003 91.9375 63.5728 91.8896L65.0835 91.7939V92.3203C65.0835 93.0859 64.4273 93.6602 63.5318 93.6602C62.8413 93.6602 62.397 93.3389 62.397 92.7988ZM68.6516 95H70.6477V90.8984C70.6477 89.832 71.2219 89.2441 72.2063 89.2441C72.4934 89.2441 72.7669 89.2852 72.9309 89.3535V87.5967C72.7805 87.5557 72.5754 87.5215 72.3567 87.5215C71.5022 87.5215 70.9075 88.0479 70.6887 88.9502H70.6477V87.6719H68.6516V95ZM77.1211 95.1504C79.2129 95.1504 80.2246 93.9131 80.4502 92.833L80.4707 92.7578H78.6386L78.625 92.7988C78.4814 93.209 77.9824 93.6602 77.1621 93.6602C76.1435 93.6602 75.5078 92.9766 75.4873 91.8076H80.5322V91.1924C80.5322 88.9775 79.1855 87.5215 77.039 87.5215C74.8926 87.5215 73.5185 89.0117 73.5185 91.3428V91.3496C73.5185 93.6943 74.8789 95.1504 77.1211 95.1504ZM77.0732 89.0117C77.9004 89.0117 78.4951 89.5381 78.6181 90.5498H75.5078C75.6377 89.5586 76.2529 89.0117 77.0732 89.0117ZM21.8203 115H28.3554V113.298H23.8847V110.816H28.1025V109.203H23.8847V106.838H28.3554V105.136H21.8203V115ZM29.9547 115H31.9508V110.789C31.9508 109.832 32.5182 109.176 33.4137 109.176C34.3092 109.176 34.7604 109.723 34.7604 110.68V115H36.7565V110.27C36.7565 108.554 35.8405 107.521 34.2272 107.521C33.1198 107.521 32.3678 108.034 31.9919 108.875H31.9508V107.672H29.9547V115ZM41.726 117.543C43.9271 117.543 45.3011 116.429 45.3011 114.795V107.672H43.3051V108.923H43.264C42.8676 108.068 42.0678 107.521 41.0355 107.521C39.183 107.521 38.0345 108.909 38.0345 111.247V111.254C38.0345 113.53 39.1693 114.897 41.0013 114.897C42.0609 114.897 42.8812 114.412 43.264 113.646H43.3051V114.768C43.3051 115.588 42.7582 116.121 41.726 116.121C40.892 116.121 40.3588 115.807 40.2015 115.444L40.181 115.396H38.2396L38.2465 115.458C38.4379 116.634 39.7094 117.543 41.726 117.543ZM41.6918 113.435C40.6937 113.435 40.0648 112.621 40.0648 111.302V111.295C40.0648 109.982 40.7006 109.176 41.6918 109.176C42.6625 109.176 43.3119 109.989 43.3119 111.295V111.302C43.3119 112.614 42.6693 113.435 41.6918 113.435ZM47.9327 106.729C48.5343 106.729 48.9991 106.257 48.9991 105.689C48.9991 105.122 48.5343 104.65 47.9327 104.65C47.3312 104.65 46.8663 105.122 46.8663 105.689C46.8663 106.257 47.3312 106.729 47.9327 106.729ZM46.9347 115H48.9308V107.672H46.9347V115ZM50.5506 115H52.5467V110.789C52.5467 109.832 53.1141 109.176 54.0096 109.176C54.9051 109.176 55.3563 109.723 55.3563 110.68V115H57.3524V110.27C57.3524 108.554 56.4363 107.521 54.8231 107.521C53.7156 107.521 52.9637 108.034 52.5877 108.875H52.5467V107.672H50.5506V115ZM62.2329 115.15C64.3247 115.15 65.3365 113.913 65.562 112.833L65.5826 112.758H63.7505L63.7369 112.799C63.5933 113.209 63.0943 113.66 62.274 113.66C61.2554 113.66 60.6197 112.977 60.5992 111.808H65.6441V111.192C65.6441 108.978 64.2974 107.521 62.1509 107.521C60.0044 107.521 58.6304 109.012 58.6304 111.343V111.35C58.6304 113.694 59.9908 115.15 62.2329 115.15ZM62.1851 109.012C63.0122 109.012 63.607 109.538 63.73 110.55H60.6197C60.7495 109.559 61.3648 109.012 62.1851 109.012ZM70.2922 115.15C72.384 115.15 73.3958 113.913 73.6213 112.833L73.6419 112.758H71.8098L71.7962 112.799C71.6526 113.209 71.1536 113.66 70.3333 113.66C69.3147 113.66 68.679 112.977 68.6585 111.808H73.7034V111.192C73.7034 108.978 72.3567 107.521 70.2102 107.521C68.0637 107.521 66.6897 109.012 66.6897 111.343V111.35C66.6897 113.694 68.0501 115.15 70.2922 115.15ZM70.2444 109.012C71.0715 109.012 71.6663 109.538 71.7893 110.55H68.679C68.8088 109.559 69.4241 109.012 70.2444 109.012ZM75.0156 115H77.0117V110.898C77.0117 109.832 77.5859 109.244 78.5703 109.244C78.8574 109.244 79.1308 109.285 79.2949 109.354V107.597C79.1445 107.556 78.9394 107.521 78.7207 107.521C77.8662 107.521 77.2715 108.048 77.0527 108.95H77.0117V107.672H75.0156V115ZM81.4343 106.729C82.0358 106.729 82.5007 106.257 82.5007 105.689C82.5007 105.122 82.0358 104.65 81.4343 104.65C80.8327 104.65 80.3679 105.122 80.3679 105.689C80.3679 106.257 80.8327 106.729 81.4343 106.729ZM80.4362 115H82.4323V107.672H80.4362V115ZM84.0522 115H86.0483V110.789C86.0483 109.832 86.6156 109.176 87.5112 109.176C88.4067 109.176 88.8578 109.723 88.8578 110.68V115H90.8539V110.27C90.8539 108.554 89.9379 107.521 88.3246 107.521C87.2172 107.521 86.4653 108.034 86.0893 108.875H86.0483V107.672H84.0522V115ZM95.8234 117.543C98.0246 117.543 99.3986 116.429 99.3986 114.795V107.672H97.4025V108.923H97.3615C96.965 108.068 96.1652 107.521 95.1329 107.521C93.2804 107.521 92.132 108.909 92.132 111.247V111.254C92.132 113.53 93.2667 114.897 95.0988 114.897C96.1583 114.897 96.9787 114.412 97.3615 113.646H97.4025V114.768C97.4025 115.588 96.8556 116.121 95.8234 116.121C94.9894 116.121 94.4562 115.807 94.299 115.444L94.2785 115.396H92.3371L92.3439 115.458C92.5353 116.634 93.8068 117.543 95.8234 117.543ZM95.7892 113.435C94.7912 113.435 94.1622 112.621 94.1622 111.302V111.295C94.1622 109.982 94.798 109.176 95.7892 109.176C96.7599 109.176 97.4093 109.989 97.4093 111.295V111.302C97.4093 112.614 96.7667 113.435 95.7892 113.435ZM21.8203 135H23.6591V128.328H23.7138L26.3798 135H27.6786L30.3378 128.328H30.3994V135H32.2382V125.136H29.8525L27.0497 132.225H27.0087L24.206 125.136H21.8203V135ZM36.0182 135.116C36.9821 135.116 37.7614 134.658 38.1784 133.906H38.2194V135H40.2155V129.976C40.2155 128.499 38.9919 127.521 37.0983 127.521C35.1637 127.521 34.0016 128.492 33.8922 129.846L33.8854 129.928H35.7106L35.7243 129.866C35.82 129.395 36.2711 129.046 37.0163 129.046C37.7956 129.046 38.2194 129.449 38.2194 130.099V130.55L36.4079 130.659C34.5895 130.775 33.5573 131.555 33.5573 132.888V132.901C33.5573 134.193 34.5485 135.116 36.0182 135.116ZM35.5329 132.799V132.785C35.5329 132.266 35.9362 131.938 36.7086 131.89L38.2194 131.794V132.32C38.2194 133.086 37.5631 133.66 36.6676 133.66C35.9772 133.66 35.5329 133.339 35.5329 132.799ZM44.8021 135.15C46.6888 135.15 48.0082 134.207 48.0082 132.771V132.765C48.0082 131.685 47.3793 131.083 45.848 130.762L44.6039 130.495C43.8656 130.338 43.6127 130.092 43.6127 129.716V129.709C43.6127 129.237 44.0433 128.93 44.7338 128.93C45.472 128.93 45.9027 129.326 45.9711 129.853L45.9779 129.907H47.8168V129.839C47.7689 128.554 46.682 127.521 44.7338 127.521C42.8676 127.521 41.6644 128.424 41.6644 129.818V129.825C41.6644 130.919 42.3822 131.63 43.8041 131.931L45.0482 132.19C45.766 132.348 46.0121 132.573 46.0121 132.963V132.97C46.0121 133.441 45.5541 133.735 44.8021 133.735C44.0023 133.735 43.5717 133.4 43.4418 132.826L43.4281 132.765H41.4799L41.4867 132.826C41.6439 134.214 42.7719 135.15 44.8021 135.15ZM52.1847 135.15C52.6017 135.15 52.9229 135.109 53.1485 135.075V133.612C53.0255 133.626 52.8956 133.646 52.7179 133.646C52.1163 133.646 51.8087 133.414 51.8087 132.73V129.176H53.1485V127.672H51.8087V125.881H49.7921V127.672H48.7735V129.176H49.7921V132.949C49.7921 134.521 50.5577 135.15 52.1847 135.15ZM57.7557 135.15C59.8475 135.15 60.8592 133.913 61.0848 132.833L61.1053 132.758H59.2733L59.2596 132.799C59.116 133.209 58.617 133.66 57.7967 133.66C56.7781 133.66 56.1424 132.977 56.1219 131.808H61.1668V131.192C61.1668 128.978 59.8201 127.521 57.6736 127.521C55.5272 127.521 54.1531 129.012 54.1531 131.343V131.35C54.1531 133.694 55.5135 135.15 57.7557 135.15ZM57.7078 129.012C58.535 129.012 59.1297 129.538 59.2528 130.55H56.1424C56.2723 129.559 56.8875 129.012 57.7078 129.012ZM62.479 135H64.4751V130.898C64.4751 129.832 65.0494 129.244 66.0337 129.244C66.3208 129.244 66.5943 129.285 66.7583 129.354V127.597C66.6079 127.556 66.4029 127.521 66.1841 127.521C65.3296 127.521 64.7349 128.048 64.5162 128.95H64.4751V127.672H62.479V135ZM69.7727 135H71.8372V126.838H74.6946V125.136H66.9221V126.838H69.7727V135ZM75.0156 135H77.0117V130.898C77.0117 129.832 77.5859 129.244 78.5703 129.244C78.8574 129.244 79.1308 129.285 79.2949 129.354V127.597C79.1445 127.556 78.9394 127.521 78.7207 127.521C77.8662 127.521 77.2715 128.048 77.0527 128.95H77.0117V127.672H75.0156V135ZM82.3981 135.116C83.362 135.116 84.1413 134.658 84.5583 133.906H84.5993V135H86.5954V129.976C86.5954 128.499 85.3718 127.521 83.4782 127.521C81.5437 127.521 80.3815 128.492 80.2722 129.846L80.2653 129.928H82.0905L82.1042 129.866C82.1999 129.395 82.6511 129.046 83.3962 129.046C84.1755 129.046 84.5993 129.449 84.5993 130.099V130.55L82.7878 130.659C80.9694 130.775 79.9372 131.555 79.9372 132.888V132.901C79.9372 134.193 80.9284 135.116 82.3981 135.116ZM81.9128 132.799V132.785C81.9128 132.266 82.3161 131.938 83.0886 131.89L84.5993 131.794V132.32C84.5993 133.086 83.9431 133.66 83.0476 133.66C82.3571 133.66 81.9128 133.339 81.9128 132.799ZM91.517 135.15C93.4721 135.15 94.7367 133.934 94.8324 132.334V132.293H92.9731L92.9662 132.354C92.8295 133.093 92.3305 133.585 91.5307 133.585C90.5463 133.585 89.9311 132.771 89.9311 131.336V131.329C89.9311 129.928 90.5463 129.087 91.5238 129.087C92.351 129.087 92.8363 129.62 92.9594 130.317L92.9731 130.379H94.8256V130.331C94.7504 128.745 93.4858 127.521 91.4965 127.521C89.3022 127.521 87.9008 128.978 87.9008 131.322V131.329C87.9008 133.694 89.2817 135.15 91.517 135.15ZM96.1447 135H98.1408V132.573L98.6535 132.006L100.752 135H103.056L100.151 130.823L102.919 127.672H100.656L98.1818 130.604H98.1408V125.136H96.1447V135ZM111.751 128.937C111.751 126.708 110.001 124.965 107.779 124.965H107.731C105.496 124.965 103.753 126.708 103.753 128.937V128.984C103.753 131.213 105.496 132.963 107.731 132.963H107.779C110.001 132.963 111.751 131.213 111.751 128.984V128.937ZM110.739 128.937V128.984C110.739 130.646 109.433 131.951 107.779 131.951H107.731C106.07 131.951 104.765 130.646 104.765 128.984V128.937C104.765 127.282 106.07 125.977 107.731 125.977H107.779C109.433 125.977 110.739 127.282 110.739 128.937ZM105.974 130.96H107.328V129.75H107.629L108.251 130.96H109.762L108.996 129.538C109.379 129.34 109.639 128.882 109.639 128.41V128.403C109.639 127.453 109.044 126.968 107.916 126.968H105.974V130.96ZM107.328 128.772V128H107.765C108.053 128 108.265 128.171 108.265 128.39C108.265 128.608 108.059 128.772 107.759 128.772H107.328ZM26.2089 155.171C28.5947 155.171 30.3242 153.674 30.5156 151.575L30.5224 151.5H28.5126L28.499 151.568C28.2324 152.737 27.3984 153.421 26.2089 153.421C24.6298 153.421 23.6181 152.136 23.6181 150.058V150.051C23.6181 147.986 24.6298 146.715 26.2089 146.715C27.4394 146.715 28.246 147.426 28.4785 148.513L28.5058 148.629H30.5156L30.5087 148.567C30.3173 146.476 28.6015 144.965 26.2089 144.965C23.331 144.965 21.5126 146.879 21.5126 150.058V150.064C21.5126 153.243 23.3242 155.171 26.2089 155.171ZM35.2458 155.15C37.3376 155.15 38.3493 153.913 38.5749 152.833L38.5954 152.758H36.7633L36.7497 152.799C36.6061 153.209 36.1071 153.66 35.2868 153.66C34.2682 153.66 33.6325 152.977 33.612 151.808H38.6569V151.192C38.6569 148.978 37.3102 147.521 35.1637 147.521C33.0172 147.521 31.6432 149.012 31.6432 151.343V151.35C31.6432 153.694 33.0036 155.15 35.2458 155.15ZM35.1979 149.012C36.0251 149.012 36.6198 149.538 36.7428 150.55H33.6325C33.7624 149.559 34.3776 149.012 35.1979 149.012ZM39.9691 155H41.9652V150.898C41.9652 149.832 42.5394 149.244 43.5238 149.244C43.8109 149.244 44.0844 149.285 44.2484 149.354V147.597C44.098 147.556 43.8929 147.521 43.6742 147.521C42.8197 147.521 42.225 148.048 42.0062 148.95H41.9652V147.672H39.9691V155ZM48.2608 155.15C48.6778 155.15 48.9991 155.109 49.2247 155.075V153.612C49.1017 153.626 48.9718 153.646 48.794 153.646C48.1925 153.646 47.8849 153.414 47.8849 152.73V149.176H49.2247V147.672H47.8849V145.881H45.8683V147.672H44.8497V149.176H45.8683V152.949C45.8683 154.521 46.6339 155.15 48.2608 155.15ZM51.6444 146.729C52.2459 146.729 52.7108 146.257 52.7108 145.689C52.7108 145.122 52.2459 144.65 51.6444 144.65C51.0428 144.65 50.5779 145.122 50.5779 145.689C50.5779 146.257 51.0428 146.729 51.6444 146.729ZM50.6463 155H52.6424V147.672H50.6463V155ZM54.7954 155H56.7915V149.176H58.1997V147.672H56.7437V147.159C56.7437 146.633 57.0376 146.353 57.7007 146.353C57.8853 146.353 58.0767 146.359 58.2134 146.387V145.067C57.981 145.02 57.5777 144.985 57.2085 144.985C55.479 144.985 54.7954 145.648 54.7954 147.084V147.672H53.7974V149.176H54.7954V155ZM60.5715 146.729C61.1731 146.729 61.6379 146.257 61.6379 145.689C61.6379 145.122 61.1731 144.65 60.5715 144.65C59.97 144.65 59.5051 145.122 59.5051 145.689C59.5051 146.257 59.97 146.729 60.5715 146.729ZM59.5735 155H61.5696V147.672H59.5735V155ZM66.539 155.15C68.4941 155.15 69.7588 153.934 69.8545 152.334V152.293H67.9951L67.9883 152.354C67.8515 153.093 67.3525 153.585 66.5527 153.585C65.5683 153.585 64.9531 152.771 64.9531 151.336V151.329C64.9531 149.928 65.5683 149.087 66.5459 149.087C67.373 149.087 67.8584 149.62 67.9814 150.317L67.9951 150.379H69.8476V150.331C69.7724 148.745 68.5078 147.521 66.5185 147.521C64.3242 147.521 62.9228 148.978 62.9228 151.322V151.329C62.9228 153.694 64.3037 155.15 66.539 155.15ZM73.279 155.116C74.2429 155.116 75.0222 154.658 75.4392 153.906H75.4802V155H77.4763V149.976C77.4763 148.499 76.2526 147.521 74.3591 147.521C72.4245 147.521 71.2624 148.492 71.153 149.846L71.1462 149.928H72.9714L72.9851 149.866C73.0808 149.395 73.5319 149.046 74.2771 149.046C75.0563 149.046 75.4802 149.449 75.4802 150.099V150.55L73.6687 150.659C71.8503 150.775 70.8181 151.555 70.8181 152.888V152.901C70.8181 154.193 71.8093 155.116 73.279 155.116ZM72.7937 152.799V152.785C72.7937 152.266 73.197 151.938 73.9694 151.89L75.4802 151.794V152.32C75.4802 153.086 74.8239 153.66 73.9284 153.66C73.238 153.66 72.7937 153.339 72.7937 152.799ZM81.9604 155.15C82.3774 155.15 82.6987 155.109 82.9242 155.075V153.612C82.8012 153.626 82.6713 153.646 82.4936 153.646C81.892 153.646 81.5844 153.414 81.5844 152.73V149.176H82.9242V147.672H81.5844V145.881H79.5678V147.672H78.5492V149.176H79.5678V152.949C79.5678 154.521 80.3334 155.15 81.9604 155.15ZM87.5314 155.15C89.6232 155.15 90.6349 153.913 90.8605 152.833L90.881 152.758H89.049L89.0353 152.799C88.8917 153.209 88.3927 153.66 87.5724 153.66C86.5538 153.66 85.9181 152.977 85.8976 151.808H90.9425V151.192C90.9425 148.978 89.5958 147.521 87.4494 147.521C85.3029 147.521 83.9288 149.012 83.9288 151.343V151.35C83.9288 153.694 85.2892 155.15 87.5314 155.15ZM87.4835 149.012C88.3107 149.012 88.9054 149.538 89.0285 150.55H85.9181C86.048 149.559 86.6632 149.012 87.4835 149.012Z" fill="white"/>
<defs>
<linearGradient id="paint0_linear" x1="68" y1="148.664" x2="185" y2="148.664" gradientUnits="userSpaceOnUse">
<stop stop-color="#5855D6"/>
<stop offset="1" stop-color="#0E1566"/>
</linearGradient>
<linearGradient id="paint1_linear" x1="106.271" y1="102.615" x2="146.728" y2="102.615" gradientUnits="userSpaceOnUse">
<stop stop-color="#5855D6"/>
<stop offset="1" stop-color="#0E1566"/>
</linearGradient>
</defs>
</svg>
