<svg width="19" height="18" viewBox="0 0 19 18" fill="none" xmlns="http://www.w3.org/2000/svg">
<path d="M12.4017 9.16082V15.2031C12.4017 16.0574 11.7315 16.75 10.8907 16.75H4.34535C3.50277 16.75 2.83258 16.0574 2.83258 15.2031V5.92188C2.83498 5.51236 2.99884 5.1203 3.28862 4.83072C3.57839 4.54114 3.97073 4.3774 4.38053 4.375H7.69173C7.80635 4.37517 7.91978 4.39814 8.02542 4.44257C8.13106 4.48699 8.22679 4.55198 8.30704 4.63375L12.147 8.53609C12.3104 8.70305 12.4018 8.92731 12.4017 9.16082V9.16082Z" stroke="#C0BEFF" stroke-width="1.25" stroke-linejoin="round"/>
<path d="M7.61713 4.375V8.17188C7.62023 8.43198 7.72501 8.68056 7.90908 8.8645C8.09314 9.04844 8.3419 9.15315 8.60219 9.15625H12.4017" stroke="#C0BEFF" stroke-width="1.25" stroke-linecap="round" stroke-linejoin="round"/>
<path d="M6.77283 4.375V2.54688C6.77523 2.13736 6.93909 1.7453 7.22886 1.45572C7.51864 1.16614 7.91098 1.0024 8.32078 1H11.6278C11.743 1.00016 11.8571 1.02311 11.9634 1.06751C12.0697 1.11192 12.1662 1.17692 12.2473 1.25875L16.0873 5.16109C16.2505 5.32626 16.342 5.54909 16.342 5.78125V11.8281C16.342 12.6824 15.6718 13.375 14.831 13.375H12.6832" stroke="#C0BEFF" stroke-width="1.25" stroke-linejoin="round"/>
<path d="M11.5574 1V4.79688C11.5605 5.05698 11.6653 5.30556 11.8493 5.4895C12.0334 5.67344 12.2821 5.77815 12.5424 5.78125H16.3419" stroke="#C0BEFF" stroke-width="1.25" stroke-linecap="round" stroke-linejoin="round"/>
</svg>
