<svg width="21" height="20" viewBox="0 0 21 20" fill="none" xmlns="http://www.w3.org/2000/svg">
<path fill-rule="evenodd" clip-rule="evenodd" d="M14.4716 12.899L19.8998 18.279C20.0906 18.4682 20.1978 18.7248 20.1977 18.9923C20.1976 19.2599 20.0903 19.5164 19.8993 19.7055C19.7084 19.8946 19.4495 20.0008 19.1796 20.0007C18.9097 20.0006 18.6508 19.8942 18.46 19.705L13.0317 14.325C11.409 15.5707 9.36843 16.1569 7.3251 15.9643C5.28177 15.7718 3.38919 14.815 2.03237 13.2886C0.675546 11.7622 -0.0435941 9.7808 0.0212441 7.74753C0.0860824 5.71427 0.930028 3.78185 2.3814 2.34339C3.83276 0.904939 5.78253 0.0685019 7.83405 0.00424047C9.88557 -0.0600209 11.8847 0.652721 13.4249 1.99747C14.965 3.34222 15.9304 5.21796 16.1246 7.24312C16.3189 9.26827 15.7274 11.2907 14.4705 12.899H14.4716ZM8.08978 14C9.69536 14 11.2352 13.3678 12.3705 12.2426C13.5058 11.1174 14.1436 9.59129 14.1436 7.99999C14.1436 6.40869 13.5058 4.88257 12.3705 3.75735C11.2352 2.63213 9.69536 1.99999 8.08978 1.99999C6.48419 1.99999 4.94437 2.63213 3.80905 3.75735C2.67373 4.88257 2.03592 6.40869 2.03592 7.99999C2.03592 9.59129 2.67373 11.1174 3.80905 12.2426C4.94437 13.3678 6.48419 14 8.08978 14Z" fill="#5855D6"/>
</svg>