<svg width="17" height="18" viewBox="0 0 17 18" fill="none" xmlns="http://www.w3.org/2000/svg">
<path d="M14.766 4.48828C14.5737 4.19994 14.3031 3.97243 13.986 3.83247C13.669 3.6925 13.3185 3.64588 12.9759 3.69808C12.426 3.77642 11.8656 3.66944 11.3832 3.39401C10.9008 3.11859 10.5239 2.6904 10.3118 2.17699C10.0403 1.52 9.43227 1.06969 8.72199 1.03402C8.46148 1.02092 8.20047 1.02092 7.93996 1.03402C7.22496 1.07183 6.61437 1.52773 6.34582 2.19117C6.13804 2.70515 5.76531 3.13549 5.28624 3.4145C4.80718 3.69351 4.24895 3.80536 3.69938 3.73246C2.98996 3.63836 2.29215 3.94429 1.90672 4.54887C1.75353 4.78854 1.6138 5.03657 1.4882 5.29179C1.18313 5.91312 1.30129 6.62812 1.72754 7.1734C2.06993 7.61062 2.25694 8.14942 2.25904 8.70475C2.26114 9.26007 2.07821 9.80028 1.73914 10.2401C1.31547 10.7905 1.20203 11.5072 1.51184 12.1307C1.58059 12.2682 1.65406 12.4044 1.73227 12.5393C1.79958 12.6539 1.86948 12.7665 1.94195 12.8771C2.1343 13.1654 2.40488 13.3928 2.72194 13.5328C3.039 13.6728 3.3894 13.7194 3.73203 13.6673C4.28197 13.5888 4.84239 13.6957 5.32481 13.9711C5.80723 14.2466 6.18416 14.6749 6.39609 15.1884C6.66766 15.8453 7.27609 16.2957 7.98594 16.3309C8.24644 16.3444 8.50747 16.3444 8.76797 16.3309C9.48297 16.2935 10.0936 15.8376 10.3621 15.1742C10.5697 14.6602 10.9424 14.2298 11.4214 13.9508C11.9004 13.6718 12.4586 13.5599 13.0081 13.6329C13.718 13.727 14.4158 13.4211 14.8012 12.8165C14.9543 12.5767 15.0938 12.3285 15.2193 12.0731C15.5248 11.4522 15.4066 10.7372 14.98 10.192C14.6377 9.75456 14.4509 9.21567 14.4489 8.66031C14.4468 8.10495 14.6298 7.56472 14.9688 7.12484C15.3925 6.57484 15.5059 5.85812 15.1957 5.23637C15.1275 5.09887 15.054 4.96265 14.9752 4.82773C14.9082 4.71229 14.8385 4.59914 14.766 4.48828Z" stroke="#C0BEFF" stroke-width="1.32624" stroke-linecap="round" stroke-linejoin="round"/>
</svg>
